HIERARCHY
ROOT Hips
{
	OFFSET 0.000000 0.000000 0.000000
	CHANNELS 6 Xposition Yposition Zposition Zrotation Yrotation Xrotation 
	JOINT LowerBack
	{
		OFFSET 0.000000 0.000000 0.000000
		CHANNELS 3 Zrotation Yrotation Xrotation
		JOINT Spine
		{
			OFFSET 0.028270 2.035590 -0.193380
			CHANNELS 3 Zrotation Yrotation Xrotation
			JOINT Spine1
			{
				OFFSET 0.056720 2.048850 -0.042750
				CHANNELS 3 Zrotation Yrotation Xrotation
				JOINT Neck
				{
					OFFSET 0.000000 0.000000 0.000000
					CHANNELS 3 Zrotation Yrotation Xrotation
					JOINT Neck1
					{
						OFFSET -0.054170 1.746240 0.172020
						CHANNELS 3 Zrotation Yrotation Xrotation
						JOINT Head
						{
							OFFSET 0.104070 1.761360 -0.123970
							CHANNELS 3 Zrotation Yrotation Xrotation
							End Site
							{
								OFFSET 0.000000 0.000000 0.000000
							}
						}
					}
				}
				JOINT LeftShoulder
				{
					OFFSET 0.000000 0.000000 0.000000
					CHANNELS 3 Zrotation Yrotation Xrotation
					JOINT LeftArm
					{
						OFFSET 3.362410 1.200890 -0.311210
						CHANNELS 3 Zrotation Yrotation Xrotation
						JOINT LeftForeArm
						{
							OFFSET 4.983000 -0.000000 -0.000000
							CHANNELS 3 Zrotation Yrotation Xrotation
							JOINT LeftHand
							{
								OFFSET 3.483560 -0.000000 -0.000000
								CHANNELS 3 Zrotation Yrotation Xrotation
								JOINT LeftFingerBase
								{
									OFFSET 0.000000 0.000000 0.000000
									CHANNELS 3 Zrotation Yrotation Xrotation
									JOINT LeftHandIndex1
									{
										OFFSET 0.715260 -0.000000 -0.000000
										CHANNELS 3 Zrotation Yrotation Xrotation
										End Site
										{
											OFFSET 0.000000 0.000000 0.000000
										}
									}
								}
								JOINT LThumb
								{
									OFFSET 0.000000 0.000000 0.000000
									CHANNELS 3 Zrotation Yrotation Xrotation
									End Site
									{
										OFFSET 0.000000 0.000000 0.000000
									}
								}
							}
						}
					}
				}
				JOINT RightShoulder
				{
					OFFSET 0.000000 0.000000 0.000000
					CHANNELS 3 Zrotation Yrotation Xrotation
					JOINT RightArm
					{
						OFFSET -3.136600 1.374050 -0.404650
						CHANNELS 3 Zrotation Yrotation Xrotation
						JOINT RightForeArm
						{
							OFFSET -5.241900 -0.000000 -0.000000
							CHANNELS 3 Zrotation Yrotation Xrotation
							JOINT RightHand
							{
								OFFSET -3.444170 -0.000000 -0.000000
								CHANNELS 3 Zrotation Yrotation Xrotation
								JOINT RightFingerBase
								{
									OFFSET 0.000000 0.000000 0.000000
									CHANNELS 3 Zrotation Yrotation Xrotation
									JOINT RightHandIndex1
									{
										OFFSET -0.622530 -0.000000 -0.000000
										CHANNELS 3 Zrotation Yrotation Xrotation
										End Site
										{
											OFFSET 0.000000 0.000000 0.000000
										}
									}
								}
								JOINT RThumb
								{
									OFFSET 0.000000 0.000000 0.000000
									CHANNELS 3 Zrotation Yrotation Xrotation
									End Site
									{
										OFFSET 0.000000 0.000000 0.000000
									}
								}
							}
						}
					}
				}
			}
		}
	}
}
}
MOTION
Frames: 15
Frame Time: 0.008333
2.982233 17.587716 -0.621334 139.035339 -42.255351 -133.148936 -24.142084 -2.340606 -0.646705 -5.703238 -0.703306 -2.443752 -7.121627 -0.666249 1.375978 3.406601 -10.132733 -6.531642 -3.893009 -0.294373 -0.207144 0.000000 0.000000 0.000000 -1.740526 15.938180 2.721784 -65.858849 6.114562 -8.337711 -3.618959 -26.759425 0.011075 6.673432 -1.578745 -0.086851 -0.012113 -0.091627 -0.000000 0.000000 0.000000 0.000000 0.000000 0.000000 0.000000 6.344026 -6.009732 -5.204287 89.599480 29.283637 35.356998 -179.711151 66.069072 179.847730 -14.693413 18.471885 -2.608212 0.339777 -1.115057 -0.000000 0.000000 0.000000 0.000000 0.000000 0.000000 0.000000 
2.978689 17.598412 -0.616152 139.500963 -41.764252 -133.902707 -23.967024 -2.195295 -0.580047 -5.681289 -0.573298 -2.439751 -7.100779 -0.536234 1.375433 3.332805 -10.136878 -6.535738 -3.887177 -0.294489 -0.205093 0.000000 0.000000 0.000000 -1.950933 16.148541 2.675347 -66.099621 6.246290 -8.308826 -3.628137 -26.352186 0.010791 6.415303 -1.481676 -0.077957 -0.013329 -0.092757 -0.000000 0.000000 0.000000 0.000000 0.000000 0.000000 0.000000 6.289077 -5.895318 -5.199482 89.620112 29.135010 35.518964 -179.719584 66.271169 179.848843 -14.683424 18.386739 -2.594020 0.340096 -1.108914 -0.000000 0.000000 0.000000 0.000000 0.000000 0.000000 0.000000 
2.974438 17.607767 -0.612041 139.862961 -41.316579 -134.486460 -23.831724 -2.092942 -0.574157 -5.660911 -0.482891 -2.442191 -7.078829 -0.447466 1.396074 3.292320 -10.159302 -6.542246 -3.882302 -0.294584 -0.202762 0.000000 0.000000 0.000000 -2.109372 16.348984 2.630334 -66.375832 6.389168 -8.345653 -3.636478 -25.904680 0.010539 6.200859 -1.393302 -0.070562 -0.014261 -0.093686 -0.000000 0.000000 0.000000 0.000000 0.000000 0.000000 0.000000 6.274944 -5.835060 -5.194572 89.625036 29.029217 35.711326 -179.734469 66.446503 179.850500 -14.637900 18.321243 -2.576517 0.340414 -1.103801 -0.000000 0.000000 0.000000 0.000000 0.000000 0.000000 0.000000 
2.969867 17.615528 -0.608958 140.097688 -40.941199 -134.868191 -23.736968 -2.042529 -0.627280 -5.642535 -0.439780 -2.448889 -7.055885 -0.407518 1.436835 3.289490 -10.202042 -6.551858 -3.877788 -0.294604 -0.200403 0.000000 0.000000 0.000000 -2.209827 16.522134 2.590139 -66.684709 6.542486 -8.434670 -3.643935 -25.424630 0.010311 6.030288 -1.311617 -0.064266 -0.014922 -0.094300 -0.000000 0.000000 0.000000 0.000000 0.000000 0.000000 0.000000 6.301185 -5.834816 -5.188689 89.610637 28.963299 35.921503 -179.754626 66.584429 179.852599 -14.558211 18.277089 -2.556206 0.340642 -1.099923 -0.000000 0.000000 0.000000 0.000000 0.000000 0.000000 0.000000 
2.964905 17.621701 -0.606329 140.214498 -40.651383 -135.065364 -23.671124 -2.041711 -0.727691 -5.624792 -0.441870 -2.457454 -7.031991 -0.413946 1.493763 3.322337 -10.266324 -6.565410 -3.872109 -0.294436 -0.198230 0.000000 0.000000 0.000000 -2.258669 16.659390 2.556281 -67.020460 6.707103 -8.555870 -3.650206 -24.923088 0.010103 5.897851 -1.233794 -0.058772 -0.015351 -0.094578 -0.000000 0.000000 0.000000 0.000000 0.000000 0.000000 0.000000 6.356671 -5.892188 -5.181381 89.572672 28.930425 36.134281 -179.778253 66.675050 179.854981 -14.450098 18.253092 -2.533791 0.340716 -1.097368 -0.000000 0.000000 0.000000 0.000000 0.000000 0.000000 0.000000 
2.959148 17.626356 -0.603401 140.247485 -40.443307 -135.130386 -23.614070 -2.078424 -0.856231 -5.604367 -0.479193 -2.466347 -7.006761 -0.456392 1.560750 3.384072 -10.351629 -6.583583 -3.863345 -0.293942 -0.196330 0.000000 0.000000 0.000000 -2.272212 16.759981 2.528635 -67.374820 6.883325 -8.685693 -3.654822 -24.412779 0.009908 5.793576 -1.156672 -0.053875 -0.015615 -0.094558 -0.000000 0.000000 0.000000 0.000000 0.000000 0.000000 0.000000 6.424222 -5.997970 -5.172076 89.505248 28.921477 36.333578 -179.803410 66.712328 179.857470 -14.322657 18.245435 -2.510473 0.340608 -1.096061 -0.000000 0.000000 0.000000 0.000000 0.000000 0.000000 0.000000 
2.952335 17.629583 -0.599621 140.229170 -40.303532 -135.122593 -23.549709 -2.137227 -0.990927 -5.578807 -0.538583 -2.474206 -6.979756 -0.521217 1.631065 3.467033 -10.455848 -6.606681 -3.849769 -0.292999 -0.194732 0.000000 0.000000 0.000000 -2.266043 16.827322 2.506257 -67.737430 7.068284 -8.800063 -3.657789 -23.903233 0.009713 5.705379 -1.077804 -0.049078 -0.015805 -0.094291 -0.000000 0.000000 0.000000 0.000000 0.000000 0.000000 0.000000 6.487408 -6.139303 -5.160147 89.404347 28.923678 36.502630 -179.828125 66.696564 179.859879 -14.186376 18.248227 -2.487056 0.340313 -1.095798 -0.000000 0.000000 0.000000 0.000000 0.000000 0.000000 0.000000 
2.944238 17.631579 -0.594780 140.187361 -40.216487 -135.092032 -23.469383 -2.204421 -1.113878 -5.547707 -0.607699 -2.479853 -6.951767 -0.595561 1.698741 3.565083 -10.578171 -6.634346 -3.830381 -0.291557 -0.193385 0.000000 0.000000 0.000000 -2.252143 16.861829 2.487910 -68.095992 7.263026 -8.878478 -3.659390 -23.407229 0.009509 5.620470 -0.994986 -0.044381 -0.016005 -0.093874 -0.000000 0.000000 0.000000 0.000000 0.000000 0.000000 0.000000 6.534457 -6.305567 -5.144777 89.271386 28.924763 36.628792 -179.850840 66.629536 179.862053 -14.052724 18.254197 -2.464741 0.339937 -1.096361 -0.000000 0.000000 0.000000 0.000000 0.000000 0.000000 0.000000 
2.934668 17.632687 -0.588769 140.145246 -40.171293 -135.076925 -23.365275 -2.269009 -1.213961 -5.510812 -0.676431 -2.482810 -6.923659 -0.668892 1.759213 3.672101 -10.716728 -6.666150 -3.804689 -0.289600 -0.192233 0.000000 0.000000 0.000000 -2.240670 16.865662 2.472055 -68.438669 7.465355 -8.906081 -3.660300 -22.933902 0.009285 5.527462 -0.907498 -0.039383 -0.016304 -0.093387 -0.000000 0.000000 0.000000 0.000000 0.000000 0.000000 0.000000 6.556260 -6.486960 -5.125583 89.108761 28.911542 36.701586 -179.869765 66.517922 179.863842 -13.932980 18.256550 -2.444328 0.339593 -1.097457 -0.000000 0.000000 0.000000 0.000000 0.000000 0.000000 0.000000 
2.923757 17.633024 -0.582050 140.108549 -40.160119 -135.086233 -23.237434 -2.325785 -1.290501 -5.469482 -0.739206 -2.483523 -6.896627 -0.735358 1.809353 3.783753 -10.866231 -6.700416 -3.772927 -0.287184 -0.190955 0.000000 0.000000 0.000000 -2.233998 16.838706 2.457813 -68.754887 7.673193 -8.877042 -3.661590 -22.490041 0.009038 5.418364 -0.815490 -0.034285 -0.016793 -0.092880 -0.000000 0.000000 0.000000 0.000000 0.000000 0.000000 0.000000 6.547831 -6.673828 -5.102652 88.923563 28.866749 36.710786 -179.882773 66.370118 179.865141 -13.834241 18.249552 -2.426416 0.339267 -1.098822 -0.000000 0.000000 0.000000 0.000000 0.000000 0.000000 0.000000 
2.911434 17.632991 -0.574735 140.090040 -40.183790 -135.126806 -23.077052 -2.371179 -1.347365 -5.422530 -0.792862 -2.482904 -6.870844 -0.791771 1.849279 3.895654 -11.029687 -6.738187 -3.736001 -0.284370 -0.189873 0.000000 0.000000 0.000000 -2.241475 16.783240 2.443188 -69.034519 7.883887 -8.790862 -3.663756 -22.084175 0.008766 5.289135 -0.721438 -0.029087 -0.017513 -0.092429 -0.000000 0.000000 0.000000 0.000000 0.000000 0.000000 0.000000 6.510920 -6.866708 -5.075823 88.719074 28.789348 36.662065 -179.889458 66.199652 179.865913 -13.767193 18.227234 -2.412105 0.339276 -1.100045 -0.000000 0.000000 0.000000 0.000000 0.000000 0.000000 0.000000 
2.897768 17.632822 -0.567203 140.093205 -40.245032 -135.188506 -22.881955 -2.405459 -1.394417 -5.369961 -0.837344 -2.482363 -6.846865 -0.838145 1.880473 4.004530 -11.203931 -6.779800 -3.694815 -0.281223 -0.189200 0.000000 0.000000 0.000000 -2.263520 16.706478 2.427002 -69.271190 8.086596 -8.654233 -3.667596 -21.714498 0.008473 5.141434 -0.629137 -0.024188 -0.018506 -0.092029 -0.000000 0.000000 0.000000 0.000000 0.000000 0.000000 0.000000 6.446713 -7.062848 -5.046338 88.502758 28.671823 36.557064 -179.888579 66.018516 179.866150 -13.734739 18.187380 -2.401597 0.339618 -1.100844 -0.000000 0.000000 0.000000 0.000000 0.000000 0.000000 0.000000 
2.883032 17.632717 -0.560160 140.113750 -40.345452 -135.250762 -22.657153 -2.431858 -1.445428 -5.313129 -0.875029 -2.484231 -6.826469 -0.876971 1.902838 4.108833 -11.378214 -6.822471 -3.650784 -0.277880 -0.188331 0.000000 0.000000 0.000000 -2.293551 16.609866 2.409684 -69.461243 8.281139 -8.485799 -3.673743 -21.383811 0.008166 4.979643 -0.541188 -0.019589 -0.019789 -0.091683 -0.000000 0.000000 0.000000 0.000000 0.000000 0.000000 0.000000 6.356892 -7.253367 -5.015593 88.285013 28.501310 36.394135 -179.878290 65.832456 179.865844 -13.735444 18.130254 -2.394588 0.340127 -1.101144 -0.000000 0.000000 0.000000 0.000000 0.000000 0.000000 0.000000 
2.867352 17.632773 -0.553796 140.156622 -40.484652 -135.308359 -22.399224 -2.450811 -1.508603 -5.251087 -0.906642 -2.489852 -6.809071 -0.909200 1.918719 4.205742 -11.550239 -6.866877 -3.605093 -0.274414 -0.187551 0.000000 0.000000 0.000000 -2.333112 16.503115 2.390515 -69.604121 8.460476 -8.302836 -3.681935 -21.091161 0.007860 4.813195 -0.461787 -0.015591 -0.021331 -0.091382 -0.000000 0.000000 0.000000 0.000000 0.000000 0.000000 0.000000 6.246007 -7.436560 -4.984875 88.070300 28.282112 36.184128 -179.858858 65.652882 179.865053 -13.768890 18.056755 -2.391078 0.340831 -1.100749 -0.000000 0.000000 0.000000 0.000000 0.000000 0.000000 0.000000 
2.851004 17.633066 -0.548436 140.220593 -40.659427 -135.353167 -22.115128 -2.464567 -1.591271 -5.185207 -0.933960 -2.500455 -6.795381 -0.936769 1.928770 4.295350 -11.712704 -6.911066 -3.559338 -0.270965 -0.186510 0.000000 0.000000 0.000000 -2.375878 16.389335 2.370209 -69.702422 8.626747 -8.129154 -3.691819 -20.840285 0.007573 4.652842 -0.393130 -0.012289 -0.023078 -0.091125 -0.000000 0.000000 0.000000 0.000000 0.000000 0.000000 0.000000 6.121046 -7.606078 -4.955027 87.863924 28.015718 35.934058 -179.830584 65.487391 179.863853 -13.831171 17.969981 -2.390568 0.341650 -1.099653 -0.000000 0.000000 0.000000 0.000000 0.000000 0.000000 0.000000 
